<?xml version="1.0" encoding="utf-8"?>
<!-- Generator: Adobe Illustrator 24.3.0, SVG Export Plug-In . SVG Version: 6.00 Build 0)  -->
<svg version="1.1" id="Calque_1" xmlns="http://www.w3.org/2000/svg" xmlns:xlink="http://www.w3.org/1999/xlink" x="0px" y="0px" width="253.23mm" height="74.4mm"
	 viewBox="0 0 717.8 210.9" style="enable-background:new 0 0 717.8 210.9;" xml:space="preserve">
<style type="text/css">
	.st0{fill:#212121;}
	.st1{fill:#6766FD;}
</style>
<g>
	<g>
		<path class="st0" d="M329.2,204.5l-0.3-3c-0.9,1.7-3.2,3.4-6.8,3.4c-5.3,0-10.2-3.9-10.2-11s5.2-11,10.5-11c4.6,0,8.1,2.6,9.4,6.4
			l-2.7,1.1c-1-3-3.4-4.8-6.7-4.8c-3.8,0-7.5,2.7-7.5,8.3s3.6,8.4,7.4,8.4c4.7,0,6.4-3.3,6.5-5.5h-7.3v-2.6h10.1v10.3H329.2z"/>
		<path class="st0" d="M342.1,195.8H339v8.6H336v-21.1h8c4,0,6.5,2.8,6.5,6.3c0,3-1.9,5.4-5.1,6l5,8.8h-3.4L342.1,195.8z
			 M343.4,193.2c2.4,0,4-1.4,4-3.6c0-2.2-1.6-3.7-4-3.7H339v7.2H343.4z"/>
		<path class="st0" d="M363.6,182.9c5.3,0,10.6,3.9,10.6,11s-5.3,11-10.6,11c-5.3,0-10.6-4-10.6-11S358.3,182.9,363.6,182.9z
			 M363.6,202.2c3.9,0,7.6-2.8,7.6-8.3s-3.7-8.3-7.6-8.3c-3.9,0-7.6,2.8-7.6,8.3S359.6,202.2,363.6,202.2z"/>
		<path class="st0" d="M377.9,197.2v-13.9h2.9v13.8c0,3.2,1.8,5,4.7,5c3,0,4.7-1.8,4.7-5v-13.8h2.9v13.9c0,5-3.3,7.7-7.6,7.7
			C381.2,204.9,377.9,202.2,377.9,197.2z"/>
		<path class="st0" d="M401.1,195.8v8.6h-2.9v-21.1h7.7c3.9,0,6.5,2.7,6.5,6.3c0,3.6-2.6,6.2-6.5,6.2H401.1z M405.3,193.2
			c2.5,0,4.1-1.4,4.1-3.6c0-2.2-1.5-3.7-4.1-3.7h-4.2v7.2H405.3z"/>
		<path class="st0" d="M415.9,204.5v-21.1h12.8v2.7h-9.9v6.5h9v2.7h-9v6.5h9.9v2.7H415.9z"/>
		<path class="st0" d="M451.5,189.1c-0.2-1.5-1.5-3.6-4.5-3.6c-2.4,0-4.1,1.5-4.1,3.5c0,1.5,0.9,2.7,2.7,3.1l3.2,0.7
			c3.5,0.8,5.5,3,5.5,5.9c0,3.3-2.8,6.3-7.3,6.3c-5.1,0-7.5-3.3-7.9-6.3l2.8-0.9c0.2,2.4,1.9,4.5,5.1,4.5c2.9,0,4.3-1.5,4.3-3.4
			c0-1.5-1-2.8-3.2-3.3l-3-0.7c-3-0.7-5.2-2.6-5.2-5.8c0-3.3,3.1-6.3,7-6.3c4.8,0,6.7,2.9,7.1,5.2L451.5,189.1z"/>
		<path class="st0" d="M464.3,194.9l-3,3.2v6.4h-2.9v-21.1h2.9v10.9l9.9-10.9h3.8l-8.8,9.4l8.9,11.7h-3.7L464.3,194.9z"/>
		<path class="st0" d="M478.2,204.5v-21.1h3v21.1H478.2z"/>
		<path class="st0" d="M486.6,204.5v-21.1h2.9v18.4h10v2.7H486.6z"/>
		<path class="st0" d="M502.9,204.5v-21.1h2.9v18.4h10v2.7H502.9z"/>
		<path class="st0" d="M529.9,201.6c-1.7,1.9-3.6,3.2-5.9,3.2c-4,0-6.1-2.7-6.1-5.4c0-2.7,1.5-4.2,3.7-5.9l0.3-0.2l-0.4-0.4
			c-1-1-2.5-2.7-2.5-4.7c0-3.4,2.8-5.3,5.5-5.3c3.2,0,5.6,2,5.6,5.2c0,2.1-1.5,3.6-3,4.7l-1.1,0.8l3.9,4.1l4.7-5.2v3.8l-2.9,3.3
			l4.8,4.9h-4L529.9,201.6z M527.9,199.8l0.1-0.1l-4.3-4.5l-1.1,0.8c-1,0.8-1.8,1.7-1.8,3.2c0,1.4,1.2,2.9,3.1,2.9
			C525.6,202.1,526.8,201.1,527.9,199.8z M523.5,190.9l0.7,0.7l1.4-1.1c1.3-0.9,1.6-1.7,1.6-2.6c0-1.4-1.1-2.6-2.7-2.6
			c-1.2,0-2.6,0.9-2.6,2.6C521.9,189.2,522.8,190.2,523.5,190.9z"/>
		<path class="st0" d="M534.6,183.3h3.5l5.5,9.4l5.5-9.4h3.3l-7.4,12.1v9H542v-9L534.6,183.3z"/>
		<path class="st0" d="M563.3,182.9c5.3,0,10.6,3.9,10.6,11s-5.3,11-10.6,11c-5.3,0-10.6-4-10.6-11S558,182.9,563.3,182.9z
			 M563.3,202.2c3.9,0,7.6-2.8,7.6-8.3s-3.7-8.3-7.6-8.3c-3.9,0-7.6,2.8-7.6,8.3S559.4,202.2,563.3,202.2z"/>
		<path class="st0" d="M577.6,197.2v-13.9h2.9v13.8c0,3.2,1.8,5,4.7,5c3,0,4.7-1.8,4.7-5v-13.8h2.9v13.9c0,5-3.3,7.7-7.6,7.7
			C580.9,204.9,577.6,202.2,577.6,197.2z"/>
	</g>
	<path class="st0" d="M126,124.7V6.1h24.9v118.6H126z"/>
	<path class="st0" d="M179.9,6.1c8.2,0,14.7,6.6,14.7,14.6c0,8-6.6,14.6-14.7,14.6c-7.9,0-14.4-6.6-14.4-14.6
		C165.5,12.7,172,6.1,179.9,6.1z"/>
	<rect x="167.6" y="43.3" class="st0" width="24.9" height="81.4"/>
	<path class="st0" d="M225.3,123.1c1.6,7.9,8.2,13.6,17.5,13.6c12.4,0,20.1-6.1,20.1-20.8v-3.8c-2.9,4.4-10,9.2-21.8,9.2
		c-21.6,0-37.8-17-37.8-39.6c0-21.5,15.6-39.8,37.8-39.8c13.3,0,20.3,5.9,22.6,10.2v-8.7h23.8v71.3c0,23.4-13.1,43.7-43.6,43.7
		c-23.4,0-38.3-14.4-40.6-29L225.3,123.1z M263.1,81.6c0-11.1-8-18-17.4-18c-9.3,0-17.5,6.9-17.5,18c0,11.1,7.5,18,17.5,18
		C255.9,99.6,263.1,92.8,263.1,81.6z"/>
	<path class="st0" d="M327,124.7h-24.9V43.3h24.1v9.3c4.4-7.7,14.4-11.5,22.8-11.5c20.5,0,29.6,14.6,29.6,32.4v51.1h-24.9V77.8
		c0-8-4.3-14.1-13.3-14.1c-8.2,0-13.4,6.1-13.4,14.3V124.7z"/>
	<path class="st0" d="M471,66.5c-3.9,14.1-16.9,25.9-37.5,25.9C411,92.4,391,76.4,391,49c0-26.2,19.5-42.9,40.6-42.9
		c25.2,0,40.8,15.6,40.8,41.8c0,3.4-0.3,7.2-0.5,7.7h-56.7c0.5,9.2,8.8,15.7,18.5,15.7c9,0,14.1-4.3,16.4-10.6L471,66.5z
		 M448.4,39.5c-0.3-6.2-4.6-13.8-16.4-13.8c-10.5,0-15.7,7.7-16.2,13.8H448.4z"/>
	<path class="st0" d="M505.1,95.4c0.3,5.6,4.3,11,12.8,11c6.4,0,9.5-3.4,9.5-7c0-2.9-2-5.4-8-6.7l-9.3-2.1
		c-17.4-3.8-24.2-13.6-24.2-25.1c0-14.9,13.1-27,31.3-27c23.6,0,31.8,14.7,32.6,24.2L529,66.4c-0.7-5.4-4.1-10-11.6-10
		c-4.7,0-8.8,2.8-8.8,7c0,3.4,2.8,5.4,6.4,6.1l10.8,2.1c16.9,3.4,25.1,13.6,25.1,25.6c0,13.9-10.6,27.5-32.4,27.5
		c-25.6,0-33.7-16.5-34.4-25.6L505.1,95.4z"/>
	<path class="st1" d="M576.1,91.1c9.2,0,16.9,7.5,16.9,16.7c0,9-7.7,16.9-16.9,16.9c-9.2,0-16.7-7.9-16.7-16.9
		C559.4,98.7,567,91.1,576.1,91.1z"/>
	<rect x="392.1" y="103.8" class="st1" width="81.3" height="20.9"/>
	<g>
		<path class="st0" d="M324.8,161.4c-1.2,4-4.9,7.4-10.6,7.4c-6.4,0-12.1-4.6-12.1-12.5c0-7.4,5.5-12.3,11.5-12.3
			c7.2,0,11.5,4.6,11.5,12.1c0,0.9-0.1,1.9-0.1,1.9h-16.7c0.1,3.1,2.8,5.3,5.9,5.3c2.9,0,4.6-1.5,5.3-3.6L324.8,161.4z M318.9,153.7
			c-0.1-2.3-1.6-4.6-5.2-4.6c-3.3,0-5.1,2.5-5.2,4.6H318.9z"/>
		<path class="st0" d="M337.9,144.7h4.7v5.6h-4.7v9.8c0,2,0.9,2.7,2.8,2.7c0.8,0,1.6-0.1,1.9-0.2v5.2c-0.6,0.2-1.7,0.6-3.6,0.6
			c-4.6,0-7.4-2.7-7.4-7.2v-10.9h-4.2v-5.6h1.2c2.5,0,3.6-1.6,3.6-3.7v-3.3h5.7V144.7z"/>
		<path class="st0" d="M367.1,142.1v2.6h5.3v5.4h-5.3V168h-6.4v-17.9h-3.9v-5.4h3.9V142c0-5.3,3.3-8.7,8.5-8.7
			c1.3,0,2.6,0.2,3.1,0.5v5.3c-0.3-0.1-0.9-0.2-2-0.2C368.9,138.9,367.1,139.5,367.1,142.1z"/>
		<path class="st0" d="M398.6,156.4c0,7.2-5.3,12.4-12.2,12.4c-7,0-12.2-5.2-12.2-12.4c0-7.2,5.3-12.4,12.2-12.4
			C393.4,144,398.6,149.2,398.6,156.4z M392.3,156.4c0-4.4-2.8-6.6-5.9-6.6c-3.1,0-5.9,2.2-5.9,6.6c0,4.4,2.8,6.6,5.9,6.6
			C389.5,163,392.3,160.8,392.3,156.4z"/>
		<path class="st0" d="M417.9,151c-0.7-0.1-1.3-0.2-1.9-0.2c-3.2,0-6,1.6-6,6.6V168h-6.3v-23.3h6.1v3.5c1.4-3.1,4.6-3.7,6.6-3.7
			c0.5,0,1,0.1,1.5,0.1V151z"/>
		<path class="st0" d="M422.3,168v-23.3h6v2.8c1.3-2.3,4.3-3.5,6.8-3.5c3.2,0,5.7,1.4,6.9,3.9c1.9-2.8,4.3-3.9,7.4-3.9
			c4.3,0,8.4,2.6,8.4,8.9V168h-6.1v-13.9c0-2.5-1.2-4.4-4.1-4.4c-2.7,0-4.3,2.1-4.3,4.6V168h-6.3v-13.9c0-2.5-1.3-4.4-4.1-4.4
			c-2.8,0-4.4,2-4.4,4.6V168H422.3z"/>
		<path class="st0" d="M470,154.6l5.7-0.9c1.3-0.2,1.8-0.9,1.8-1.7c0-1.7-1.3-3-3.9-3c-2.8,0-4.3,1.8-4.5,3.8l-5.6-1.2
			c0.4-3.7,3.7-7.7,10-7.7c7.4,0,10.2,4.2,10.2,8.9v11.5c0,1.2,0.1,2.9,0.3,3.7h-5.8c-0.1-0.6-0.2-1.9-0.2-2.8
			c-1.2,1.9-3.4,3.5-6.9,3.5c-5,0-8-3.4-8-7C463,157.5,466.1,155.2,470,154.6z M477.5,158.6v-1l-5.3,0.8c-1.6,0.2-2.9,1.1-2.9,2.9
			c0,1.4,1,2.7,3,2.7C475,164,477.5,162.7,477.5,158.6z"/>
		<path class="st0" d="M497.6,144.7h4.7v5.6h-4.7v9.8c0,2,0.9,2.7,2.8,2.7c0.8,0,1.6-0.1,1.9-0.2v5.2c-0.6,0.2-1.7,0.6-3.6,0.6
			c-4.6,0-7.4-2.7-7.4-7.2v-10.9h-4.2v-5.6h1.2c2.5,0,3.6-1.6,3.6-3.7v-3.3h5.7V144.7z"/>
		<path class="st0" d="M510.8,133.1c2.2,0,3.9,1.8,3.9,3.9c0,2.1-1.7,3.8-3.9,3.8c-2.1,0-3.9-1.8-3.9-3.8
			C506.9,134.9,508.7,133.1,510.8,133.1z M507.7,168v-23.3h6.3V168H507.7z"/>
		<path class="st0" d="M543.5,156.4c0,7.2-5.3,12.4-12.2,12.4c-7,0-12.2-5.2-12.2-12.4c0-7.2,5.3-12.4,12.2-12.4
			C538.2,144,543.5,149.2,543.5,156.4z M537.2,156.4c0-4.4-2.8-6.6-5.9-6.6c-3.1,0-5.9,2.2-5.9,6.6c0,4.4,2.8,6.6,5.9,6.6
			C534.3,163,537.2,160.8,537.2,156.4z"/>
		<path class="st0" d="M554.8,168h-6.3v-23.3h6.1v2.9c1.4-2.4,4.2-3.5,6.7-3.5c5.8,0,8.4,4.1,8.4,9.3V168h-6.3v-13.6
			c0-2.6-1.3-4.6-4.3-4.6c-2.8,0-4.4,2.1-4.4,4.8V168z"/>
		<path class="st0" d="M579.6,160.4c0.1,1.9,1.5,3.6,4.3,3.6c2.1,0,3.1-1.1,3.1-2.3c0-1-0.7-1.9-2.5-2.3l-3.1-0.7
			c-4.5-1-6.5-3.7-6.5-7c0-4.2,3.7-7.6,8.7-7.6c6.6,0,8.9,4.2,9.2,6.7l-5.3,1.2c-0.2-1.4-1.2-3.1-3.8-3.1c-1.7,0-3,1-3,2.3
			c0,1.1,0.9,1.9,2.1,2.1l3.3,0.7c4.6,1,6.9,3.7,6.9,7.2c0,3.8-2.9,7.7-9.1,7.7c-7,0-9.4-4.6-9.7-7.2L579.6,160.4z"/>
	</g>
</g>
</svg>
